<svg width="16" height="16" viewBox="0 0 16 16" fill="none" xmlns="http://www.w3.org/2000/svg">
<g id="copy">
<path id="Vector" d="M10.6667 5.33333V4C10.6667 3.64638 10.5263 3.30724 10.2762 3.05719C10.0262 2.80714 9.68704 2.66666 9.33341 2.66666H4.00008C3.64646 2.66666 3.30732 2.80714 3.05727 3.05719C2.80722 3.30724 2.66675 3.64638 2.66675 4V9.33333C2.66675 9.68695 2.80722 10.0261 3.05727 10.2761C3.30732 10.5262 3.64646 10.6667 4.00008 10.6667H5.33341M5.33341 6.66666C5.33341 6.31304 5.47389 5.9739 5.72394 5.72386C5.97399 5.47381 6.31313 5.33333 6.66675 5.33333H12.0001C12.3537 5.33333 12.6928 5.47381 12.9429 5.72386C13.1929 5.9739 13.3334 6.31304 13.3334 6.66666V12C13.3334 12.3536 13.1929 12.6928 12.9429 12.9428C12.6928 13.1929 12.3537 13.3333 12.0001 13.3333H6.66675C6.31313 13.3333 5.97399 13.1929 5.72394 12.9428C5.47389 12.6928 5.33341 12.3536 5.33341 12V6.66666Z" stroke="white" stroke-width="1.4" stroke-linecap="round" stroke-linejoin="round"/>
</g>
</svg>
