<svg width="20" height="20" viewBox="0 0 20 20" fill="none" xmlns="http://www.w3.org/2000/svg">
<g id="Frame 2608694">
<g id="Group 21">
<path id="Ellipse 1" d="M7 5.5C7 6.32843 6.32843 7 5.5 7C4.67157 7 4 6.32843 4 5.5C4 4.67157 4.67157 4 5.5 4C6.32843 4 7 4.67157 7 5.5Z" fill="#8F80FF"/>
<path id="Ellipse 1 (Stroke)" fill-rule="evenodd" clip-rule="evenodd" d="M5.5 6C5.77614 6 6 5.77614 6 5.5C6 5.22386 5.77614 5 5.5 5C5.22386 5 5 5.22386 5 5.5C5 5.77614 5.22386 6 5.5 6ZM5.5 7C6.32843 7 7 6.32843 7 5.5C7 4.67157 6.32843 4 5.5 4C4.67157 4 4 4.67157 4 5.5C4 6.32843 4.67157 7 5.5 7Z" fill="#8F80FF"/>
<path id="Ellipse 1_2" d="M16 5.5C16 6.32843 15.3284 7 14.5 7C13.6716 7 13 6.32843 13 5.5C13 4.67157 13.6716 4 14.5 4C15.3284 4 16 4.67157 16 5.5Z" fill="#8F80FF"/>
<path id="Ellipse 1 (Stroke)_2" fill-rule="evenodd" clip-rule="evenodd" d="M14.5 6C14.7761 6 15 5.77614 15 5.5C15 5.22386 14.7761 5 14.5 5C14.2239 5 14 5.22386 14 5.5C14 5.77614 14.2239 6 14.5 6ZM14.5 7C15.3284 7 16 6.32843 16 5.5C16 4.67157 15.3284 4 14.5 4C13.6716 4 13 4.67157 13 5.5C13 6.32843 13.6716 7 14.5 7Z" fill="#8F80FF"/>
<path id="Vector 16 (Stroke)" fill-rule="evenodd" clip-rule="evenodd" d="M6.28666 12.6081C6.6461 12.1888 7.27741 12.1402 7.69671 12.4997C8.46226 13.1559 9.56545 13.2138 10.6085 12.7218C11.6582 12.2267 12.4182 11.274 12.5105 10.234C12.5593 9.68384 13.0448 9.27744 13.595 9.32624C14.1451 9.37505 14.5515 9.86057 14.5027 10.4107C14.3344 12.3076 13.0061 13.8022 11.4617 14.5307C9.91056 15.2623 7.91367 15.3199 6.39505 14.0181C5.97574 13.6587 5.92721 13.0274 6.28666 12.6081Z" fill="#8F80FF"/>
</g>
</g>
</svg>
