<svg width="15" height="14" viewBox="0 0 15 14" fill="none" xmlns="http://www.w3.org/2000/svg">
<path id="icon" d="M1.96802 4.45C1.78052 4.6375 1.56802 4.69375 1.33052 4.61875C1.09302 4.54375 0.936767 4.39375 0.861767 4.16875C0.786767 3.94375 0.849267 3.73125 1.04927 3.53125L4.03052 0.549998C4.16802 0.399997 4.32427 0.324997 4.49927 0.324997C4.67427 0.324997 4.83052 0.399997 4.96802 0.549998L7.96802 3.53125C8.14302 3.71875 8.19302 3.93125 8.11802 4.16875C8.04302 4.40625 7.89302 4.5625 7.66802 4.6375C7.44302 4.7125 7.23677 4.65 7.04927 4.45L4.49927 1.9375L1.96802 4.45ZM3.84302 0.999997H5.15552V10C5.15552 10.275 5.04302 10.4625 4.81802 10.5625C4.60552 10.6625 4.38677 10.6625 4.16177 10.5625C3.94927 10.4625 3.84302 10.275 3.84302 10V0.999997ZM13.0493 9.53125C13.2243 9.35625 13.4305 9.30625 13.668 9.38125C13.9055 9.45625 14.0618 9.60625 14.1368 9.83125C14.2118 10.0562 14.1555 10.2625 13.968 10.45L10.968 13.45C10.8305 13.6 10.6743 13.675 10.4993 13.675C10.3243 13.675 10.168 13.6 10.0305 13.45L7.04927 10.45C6.86177 10.275 6.80552 10.0687 6.88052 9.83125C6.95552 9.59375 7.10552 9.4375 7.33052 9.3625C7.55552 9.2875 7.76802 9.34375 7.96802 9.53125L10.4993 12.0625L13.0493 9.53125ZM11.1555 13H9.84302V4C9.84302 3.725 9.94927 3.5375 10.1618 3.4375C10.3868 3.325 10.6055 3.325 10.818 3.4375C11.043 3.5375 11.1555 3.725 11.1555 4V13Z" fill="white"/>
</svg>
